<?xml version="1.0" encoding="UTF-8" standalone="no"?>
<svg
   xmlns:dc="http://purl.org/dc/elements/1.1/"
   xmlns:cc="http://creativecommons.org/ns#"
   xmlns:rdf="http://www.w3.org/1999/02/22-rdf-syntax-ns#"
   xmlns:svg="http://www.w3.org/2000/svg"
   xmlns="http://www.w3.org/2000/svg"
   xmlns:sodipodi="http://sodipodi.sourceforge.net/DTD/sodipodi-0.dtd"
   xmlns:inkscape="http://www.inkscape.org/namespaces/inkscape"
   viewBox="0 0 36 33.75"
   version="1.1"
   id="svg4387"
   sodipodi:docname="logo-pll.svg"
   inkscape:version="0.92.2 (5c3e80d, 2017-08-06)">
  <metadata
     id="metadata4393">
    <rdf:RDF>
      <cc:Work
         rdf:about="">
        <dc:format>image/svg+xml</dc:format>
        <dc:type
           rdf:resource="http://purl.org/dc/dcmitype/StillImage" />
      </cc:Work>
    </rdf:RDF>
  </metadata>
  <defs
     id="defs4391" />
  <sodipodi:namedview
     pagecolor="#ffffff"
     bordercolor="#666666"
     borderopacity="1"
     objecttolerance="10"
     gridtolerance="10"
     guidetolerance="10"
     inkscape:pageopacity="0"
     inkscape:pageshadow="2"
     inkscape:window-width="936"
     inkscape:window-height="727"
     id="namedview4389"
     showgrid="false"
     inkscape:zoom="9.8924691"
     inkscape:cx="18"
     inkscape:cy="8.7880402"
     inkscape:window-x="0"
     inkscape:window-y="22"
     inkscape:window-maximized="0"
     inkscape:current-layer="svg4387" />
  <title
     id="title4377">pl-logo</title>
  <path
     inkscape:connector-curvature="0"
     style="fill:#006ba6;stroke-width:0.40300268"
     d="m 16.776851,21.332586 -0.908848,-0.40044 -0.585545,-1.344878 -1.328876,-0.511124 -1.49869,-1.174869 -0.889932,0.861324 -1.328872,0.275007 -0.7076425,0.983347 -1.0683453,0.998074 -1.45484,0.68075 -1.005577,1.49598 -0.5709297,0.662244 -0.9802124,0.673182 -0.5438448,-0.505459 -0.5816776,0.486953 -0.72613,1.182434 C 2.2146914,24.811505 1.9838267,24.127353 1.8686076,22.714102 1.6545093,20.094624 1.4382603,16.807618 1.2284617,13.441286 6.1449946,12.509686 12.402441,11.893545 17.482772,11.85124 V 22.053757 C 17.249325,21.930266 17.01631,21.832378 16.776851,21.332586"
     id="path4049" />
  <path
     inkscape:connector-curvature="0"
     style="fill:#658d1b;stroke-width:0.40300268"
     d="M 17.482342,26.246659 H 2.8612865 c 0.2162494,0.398544 0.4617322,0.767261 0.7471973,1.117826 1.0515767,1.298788 2.5506988,2.257942 4.4522229,2.770583 2.5799333,0.695484 4.2278073,1.151085 5.4264143,1.486913 l 1.431625,0.392894 c 1.169375,0.317328 1.987938,0.781993 2.563166,1.291234 v -7.05945"
     id="path4051" />
  <path
     inkscape:connector-curvature="0"
     style="fill:#003865;stroke-width:0.40300268"
     d="m 32.921964,21.280829 c 0.401114,-0.280307 0.860691,-0.606701 1.467305,-0.800496 0.08599,-1.200942 0.17411,-2.482724 0.26655,-3.810983 -0.161644,0.09595 -0.32975,0.217603 -0.537397,0.361534 -0.696894,0.49602 -1.56791,1.119717 -3.102716,1.119717 -1.435922,0 -2.367981,-0.50546 -3.115175,-0.911187 -0.606616,-0.330179 -1.095863,-0.588566 -1.811676,-0.588566 -0.789328,0 -1.467306,0.35435 -2.189564,0.73589 -0.779012,0.405738 -1.658195,0.868889 -2.735137,0.868889 -1.104027,0 -1.901951,-0.29883 -2.554568,-0.610486 v 3.606218 c 0.147028,0.07366 0.291912,0.15111 0.432499,0.227045 0.654762,0.35435 1.221824,0.660343 2.122497,0.660343 0.556315,0 1.108328,-0.291273 1.759221,-0.636547 0.867145,-0.453711 1.853805,-0.97012 3.165484,-0.97012 1.246762,0 2.071771,0.440849 2.808649,0.835623 0.650893,0.357751 1.219677,0.658462 2.118203,0.658462 0.858112,0 1.326295,-0.326396 1.905825,-0.745344"
     id="path4053" />
  <path
     inkscape:connector-curvature="0"
     style="fill:#003865;stroke-width:0.40300268"
     d="m 21.164154,29.50231 c -1.104027,0 -1.901951,-0.295042 -2.554568,-0.614268 v 4.415795 c 0.573081,-0.507353 1.389494,-0.972004 2.565315,-1.289331 l 1.425174,-0.392893 c 1.200761,-0.335848 2.840034,-0.791432 5.428568,-1.486914 0.753647,-0.204737 1.446242,-0.475999 2.073921,-0.817119 -0.940658,-0.151111 -1.624657,-0.520205 -2.202033,-0.831868 -0.606616,-0.330164 -1.095863,-0.590452 -1.811676,-0.590452 -0.789328,0 -1.467306,0.359635 -2.189567,0.737791 -0.778577,0.404593 -1.658192,0.869259 -2.735134,0.869259"
     id="path4055" />
  <path
     inkscape:connector-curvature="0"
     style="fill:#006ba6;stroke-width:0.40300268"
     d="m 32.921964,15.734368 c 0.478495,-0.337733 1.058022,-0.743456 1.853802,-0.904013 0.03135,-0.459368 0.06106,-0.924034 0.09027,-1.389069 -4.916526,-0.9316 -11.167955,-1.547741 -16.256457,-1.590046 v 3.853284 c 0.147027,0.0774 0.291914,0.149602 0.432498,0.228556 0.654765,0.350569 1.221824,0.662231 2.122498,0.662231 0.556315,0 1.108329,-0.29881 1.759224,-0.638057 0.867141,-0.461251 1.853804,-0.975791 3.165481,-0.975791 1.246762,0 2.071774,0.451811 2.808649,0.839422 0.650893,0.35585 1.21968,0.660343 2.118202,0.660343 0.858116,0 1.326296,-0.328281 1.905824,-0.746856"
     id="path4057" />
  <path
     inkscape:connector-curvature="0"
     style="fill:#006ba6;stroke-width:0.40300268"
     d="m 18.609586,23.191988 v 3.757322 c 0.147028,0.0718 0.291912,0.153 0.432499,0.227045 0.654762,0.354351 1.221824,0.662231 2.122497,0.662231 0.556315,0 1.108328,-0.295043 1.759221,-0.634663 0.867145,-0.455593 1.853805,-0.973889 3.165484,-0.973889 1.246762,0 2.071771,0.444633 2.808649,0.835624 0.650893,0.357749 1.219677,0.662242 2.118203,0.662242 0.699045,0 1.135842,-0.219491 1.591125,-0.522091 0.938507,-1.220955 1.484073,-2.733559 1.616488,-4.491712 0.0019,-0.0774 0.01024,-0.149601 0.01674,-0.219492 -0.04,0.02392 -0.07997,0.05511 -0.12167,0.0831 -0.696894,0.496007 -1.567909,1.112157 -3.102714,1.112157 -1.435923,0 -2.367981,-0.497902 -3.115176,-0.900229 -0.606617,-0.335846 -1.09586,-0.595748 -1.811674,-0.595748 -0.789325,0 -1.467309,0.355861 -2.189574,0.741572 -0.779007,0.405723 -1.658189,0.866987 -2.735127,0.866987 -1.104457,0 -1.902387,-0.295037 -2.555,-0.610484"
     id="path4059" />
  <path
     inkscape:connector-curvature="0"
     style="fill:#003865;stroke-width:0.40300268"
     d="M 1.1631134,12.458313 C 0.93009764,8.7062752 0.726317,4.9266479 0.59863197,1.9479067 5.7855848,0.911308 12.650072,0.22865963 18.045106,0.22865963 c 5.395029,0 12.269837,0.68264837 17.44432,1.71924707 -0.117371,2.9791265 -0.325447,6.7587386 -0.562761,10.5104063 -4.88257,-0.905526 -11.339929,-1.58249 -16.881992,-1.58249 -5.537763,-2.96e-4 -11.9968391,0.676594 -16.8815596,1.58249"
     id="path4061" />
  <polyline
     transform="matrix(0.42991728,0,0,0.3777731,-59.084201,-52.36264)"
     style="fill:#ffffff"
     points="148.057,150.322 148.496,148.184 146.514,147.28 148.677,147.051 148.896,144.883   149.785,146.88 151.895,146.44 150.293,147.9 151.387,149.8 149.502,148.691 148.057,150.322   "
     id="polyline4063" />
  <polyline
     transform="matrix(0.42991728,0,0,0.3777731,-59.084201,-52.36264)"
     style="fill:#ffffff"
     points="161.289,148.569 159.458,147.378 157.93,148.95 158.477,146.831 156.548,145.845   158.696,145.703 159.028,143.545 159.814,145.576 161.958,145.229 160.288,146.626 161.289,148.569   "
     id="polyline4065" />
  <polyline
     transform="matrix(0.42991728,0,0,0.3777731,-59.084201,-52.36264)"
     style="fill:#ffffff"
     points="171.216,147.798 169.453,146.519 167.856,148.003 168.511,145.918 166.626,144.834   168.784,144.81 169.229,142.661 169.912,144.741 172.061,144.502 170.313,145.796 171.216,147.798   "
     id="polyline4067" />
  <polyline
     transform="matrix(0.42991728,0,0,0.3777731,-59.084201,-52.36264)"
     style="fill:#ffffff"
     points="181.138,147.583 179.453,146.211 177.778,147.583 178.545,145.542 176.719,144.336   178.892,144.453 179.453,142.339 180.005,144.453 182.173,144.336 180.371,145.542 181.138,147.583   "
     id="polyline4069" />
  <polyline
     transform="matrix(0.42991728,0,0,0.3777731,-59.084201,-52.36264)"
     style="fill:#ffffff"
     points="209.399,148.716 207.524,149.814 208.604,147.915 206.997,146.455 209.116,146.904   210.01,144.888 210.22,147.065 212.388,147.3 210.396,148.208 210.854,150.342 209.399,148.716   "
     id="polyline4071" />
  <polyline
     transform="matrix(0.42991728,0,0,0.3777731,-59.084201,-52.36264)"
     style="fill:#ffffff"
     points="198.604,146.626 196.919,145.234 199.053,145.591 199.858,143.545 200.181,145.703   202.349,145.835 200.41,146.831 200.967,148.95 199.424,147.378 197.603,148.579 198.604,146.626   "
     id="polyline4073" />
  <polyline
     transform="matrix(0.42991728,0,0,0.3777731,-59.084201,-52.36264)"
     style="fill:#ffffff"
     points="188.589,145.806 186.855,144.502 189.009,144.751 189.688,142.666 190.132,144.824   192.295,144.834 190.4,145.928 191.06,148.018 189.463,146.519 187.7,147.798 188.589,145.806   "
     id="polyline4075" />
  <polyline
     transform="matrix(0.42991728,0,0,0.3777731,-59.084201,-52.36264)"
     style="fill:#ffffff"
     points="149.502,166.392 149.946,164.258 147.983,163.34 150.132,163.135 150.386,160.962   151.255,162.969 153.364,162.544 151.758,163.989 152.813,165.889 150.942,164.771 149.502,166.392   "
     id="polyline4077" />
  <polyline
     transform="matrix(0.42991728,0,0,0.3777731,-59.084201,-52.36264)"
     style="fill:#ffffff"
     points="162.373,164.771 160.552,163.564 159.014,165.112 159.57,163.008 157.651,161.997 159.81,161.88   160.151,159.722 160.938,161.777 163.071,161.436 161.382,162.813 162.373,164.771   "
     id="polyline4079" />
  <polyline
     transform="matrix(0.42991728,0,0,0.3777731,-59.084201,-52.36264)"
     style="fill:#ffffff"
     points="171.919,164.077 170.146,162.788 168.555,164.272 169.214,162.178 167.339,161.089   169.502,161.084 169.937,158.936 170.61,161.011 172.778,160.767 171.025,162.075 171.919,164.077   "
     id="polyline4081" />
  <polyline
     transform="matrix(0.42991728,0,0,0.3777731,-59.084201,-52.36264)"
     style="fill:#ffffff"
     points="181.47,163.901 179.78,162.52 178.101,163.901 178.882,161.841 177.061,160.645 179.214,160.762   179.78,158.647 180.337,160.762 182.5,160.645 180.688,161.841 181.47,163.901   "
     id="polyline4083" />
  <polyline
     transform="matrix(0.42991728,0,0,0.3777731,-59.084201,-52.36264)"
     style="fill:#ffffff"
     points="208.613,164.893 206.738,166.006 207.822,164.102 206.211,162.642 208.325,163.066   209.204,161.084 209.429,163.247 211.592,163.467 209.614,164.375 210.073,166.519 208.613,164.893   "
     id="polyline4085" />
  <polyline
     transform="matrix(0.42991728,0,0,0.3777731,-59.084201,-52.36264)"
     style="fill:#ffffff"
     points="198.188,162.891 196.504,161.509 198.647,161.841 199.424,159.805 199.756,161.973   201.929,162.085 199.99,163.081 200.537,165.195 199.014,163.643 197.188,164.844 198.188,162.891   "
     id="polyline4087" />
  <polyline
     transform="matrix(0.42991728,0,0,0.3777731,-59.084201,-52.36264)"
     style="fill:#ffffff"
     points="188.53,162.109 186.807,160.811 188.96,161.05 189.639,158.979 190.078,161.113 192.256,161.157   190.352,162.217 191.001,164.307 189.409,162.827 187.651,164.106 188.53,162.109   "
     id="polyline4089" />
  <polyline
     transform="matrix(0.42991728,0,0,0.3777731,-59.084201,-52.36264)"
     style="fill:#ffffff"
     points="154.233,156.909 154.741,154.78 152.793,153.818 154.961,153.657 155.249,151.484   156.06,153.506 158.184,153.135 156.548,154.546 157.578,156.479 155.732,155.327 154.233,156.909   "
     id="polyline4091" />
  <polyline
     transform="matrix(0.42991728,0,0,0.3777731,-59.084201,-52.36264)"
     style="fill:#ffffff"
     points="144.741,158.418 145.181,156.265 143.184,155.381 145.332,155.137 145.547,152.964   146.445,154.946 148.569,154.512 146.963,155.972 148.057,157.876 146.177,156.772 144.741,158.418   "
     id="polyline4093" />
  <polyline
     transform="matrix(0.42991728,0,0,0.3777731,-59.084201,-52.36264)"
     style="fill:#ffffff"
     points="167.08,155.571 165.298,154.316 163.716,155.845 164.341,153.73 162.422,152.69 164.6,152.637   164.976,150.474 165.708,152.539 167.856,152.246 166.143,153.589 167.08,155.571   "
     id="polyline4095" />
  <polyline
     transform="matrix(0.42991728,0,0,0.3777731,-59.084201,-52.36264)"
     style="fill:#ffffff"
     points="176.592,155.112 174.863,153.774 173.228,155.215 173.94,153.149 172.085,152.007   174.238,152.051 174.741,149.922 175.366,152.007 177.524,151.846 175.742,153.101 176.592,155.112   "
     id="polyline4097" />
  <polyline
     transform="matrix(0.42991728,0,0,0.3777731,-59.084201,-52.36264)"
     style="fill:#ffffff"
     points="186.108,155.239 184.463,153.794 182.744,155.117 183.584,153.101 181.816,151.846   183.97,152.017 184.595,149.927 185.088,152.065 187.256,152.017 185.4,153.159 186.108,155.239   "
     id="polyline4099" />
  <polyline
     transform="matrix(0.42991728,0,0,0.3777731,-59.084201,-52.36264)"
     style="fill:#ffffff"
     points="213.174,156.841 211.26,157.905 212.388,156.045 210.825,154.541 212.925,155.029   213.843,153.037 214.019,155.215 216.177,155.498 214.17,156.348 214.58,158.511 213.174,156.841   "
     id="polyline4101" />
  <polyline
     transform="matrix(0.42991728,0,0,0.3777731,-59.084201,-52.36264)"
     style="fill:#ffffff"
     points="202.793,154.609 201.128,153.198 203.262,153.574 204.102,151.553 204.38,153.73   206.533,153.892 204.595,154.839 205.098,156.968 203.613,155.381 201.753,156.558 202.793,154.609   "
     id="polyline4103" />
  <polyline
     transform="matrix(0.42991728,0,0,0.3777731,-59.084201,-52.36264)"
     style="fill:#ffffff"
     points="193.188,153.633 191.479,152.285 193.633,152.573 194.355,150.518 194.741,152.661   196.914,152.754 195,153.774 195.596,155.884 194.033,154.37 192.256,155.605 193.188,153.633   "
     id="polyline4105" />
</svg>
